<svg width="24" height="24" viewBox="0 0 24 24" fill="none" xmlns="http://www.w3.org/2000/svg">
<path d="M18.48 10.29V14.29C18.48 14.55 18.47 14.8 18.44 15.04C18.21 17.74 16.62 19.08 13.69 19.08H13.29C13.04 19.08 12.8 19.2 12.65 19.4L11.45 21C10.92 21.71 10.06 21.71 9.53 21L8.32999 19.4C8.19999 19.23 7.91 19.08 7.69 19.08H7.29001C4.10001 19.08 2.5 18.29 2.5 14.29V10.29C2.5 7.36001 3.85001 5.77001 6.54001 5.54001C6.78001 5.51001 7.03001 5.5 7.29001 5.5H13.69C16.88 5.5 18.48 7.10001 18.48 10.29Z" stroke="#22282E" stroke-width="1.5" stroke-miterlimit="10" stroke-linecap="round" stroke-linejoin="round"/>
<path d="M21.4812 11.29V7.29001C21.4812 4.10001 19.8812 2.5 16.6912 2.5H10.2912C7.76679 2.5 6.23707 3.50214 5.71484 5.5H13.6912C16.8812 5.5 18.4812 7.10001 18.4812 10.29V15.8669C20.4791 15.3465 21.4812 13.823 21.4812 11.29Z" stroke="#22282E" stroke-width="1.5" stroke-miterlimit="10" stroke-linecap="round" stroke-linejoin="round"/>
<path d="M13.9955 12.75H14.0045" stroke="#22282E" stroke-width="2" stroke-linecap="round" stroke-linejoin="round"/>
<path d="M10.4955 12.75H10.5045" stroke="#22282E" stroke-width="2" stroke-linecap="round" stroke-linejoin="round"/>
<path d="M6.9955 12.75H7.0045" stroke="#22282E" stroke-width="2" stroke-linecap="round" stroke-linejoin="round"/>
</svg>
