<svg width="21" height="21" viewBox="0 0 21 21" fill="none" xmlns="http://www.w3.org/2000/svg">
<path d="M5.1875 10.5C5.1875 9.5091 5.46051 8.58086 5.9348 7.78606V4.41465H2.5634C1.22531 6.15246 0.5 8.27039 0.5 10.5C0.5 12.7296 1.22531 14.8475 2.5634 16.5854H5.9348V13.2139C5.46051 12.4191 5.1875 11.4909 5.1875 10.5Z" fill="#FBBD00"/>
<path d="M10.5 15.8125L8.15625 18.1563L10.5 20.5C12.7296 20.5 14.8475 19.7747 16.5854 18.4366V15.0688H13.2175C12.4158 15.5448 11.4836 15.8125 10.5 15.8125Z" fill="#0F9D58"/>
<path d="M5.93479 13.2139L2.56339 16.5854C2.82831 16.9294 3.11678 17.2589 3.42893 17.5711C5.31768 19.4598 7.82889 20.5 10.5 20.5V15.8125C8.56155 15.8125 6.8626 14.7687 5.93479 13.2139Z" fill="#31AA52"/>
<path d="M20.5 10.5C20.5 9.8916 20.4449 9.28207 20.3363 8.6884L20.2483 8.20797H10.5V12.8955H15.2442C14.7835 13.8119 14.0752 14.5596 13.2175 15.0688L16.5853 18.4366C16.9294 18.1717 17.2589 17.8832 17.5711 17.5711C19.4598 15.6823 20.5 13.1711 20.5 10.5Z" fill="#3C79E6"/>
<path d="M14.2565 6.74348L14.6708 7.15777L17.9854 3.84324L17.5711 3.42895C15.6823 1.5402 13.1711 0.5 10.5 0.5L8.15625 2.84375L10.5 5.1875C11.919 5.1875 13.2531 5.74008 14.2565 6.74348Z" fill="#CF2D48"/>
<path d="M10.5 5.1875V0.5C7.8289 0.5 5.31769 1.5402 3.4289 3.42891C3.11675 3.74105 2.82828 4.07055 2.56335 4.41465L5.93476 7.78605C6.86261 6.23125 8.56156 5.1875 10.5 5.1875Z" fill="#EB4132"/>
</svg>
