<svg width="16" height="16" viewBox="0 0 16 16" fill="none" xmlns="http://www.w3.org/2000/svg">
<path d="M7.9987 8.66699C8.36689 8.66699 8.66536 8.36852 8.66536 8.00033C8.66536 7.63214 8.36689 7.33366 7.9987 7.33366C7.63051 7.33366 7.33203 7.63214 7.33203 8.00033C7.33203 8.36852 7.63051 8.66699 7.9987 8.66699Z" fill="#6E7689"/>
<path d="M7.9987 4.00033C8.36689 4.00033 8.66536 3.70185 8.66536 3.33366C8.66536 2.96547 8.36689 2.66699 7.9987 2.66699C7.63051 2.66699 7.33203 2.96547 7.33203 3.33366C7.33203 3.70185 7.63051 4.00033 7.9987 4.00033Z" fill="#6E7689"/>
<path d="M7.9987 13.3337C8.36689 13.3337 8.66536 13.0352 8.66536 12.667C8.66536 12.2988 8.36689 12.0003 7.9987 12.0003C7.63051 12.0003 7.33203 12.2988 7.33203 12.667C7.33203 13.0352 7.63051 13.3337 7.9987 13.3337Z" fill="#6E7689"/>
<path d="M7.9987 8.66699C8.36689 8.66699 8.66536 8.36852 8.66536 8.00033C8.66536 7.63214 8.36689 7.33366 7.9987 7.33366C7.63051 7.33366 7.33203 7.63214 7.33203 8.00033C7.33203 8.36852 7.63051 8.66699 7.9987 8.66699Z" stroke="#6E7689" stroke-linecap="round" stroke-linejoin="round"/>
<path d="M7.9987 4.00033C8.36689 4.00033 8.66536 3.70185 8.66536 3.33366C8.66536 2.96547 8.36689 2.66699 7.9987 2.66699C7.63051 2.66699 7.33203 2.96547 7.33203 3.33366C7.33203 3.70185 7.63051 4.00033 7.9987 4.00033Z" stroke="#6E7689" stroke-linecap="round" stroke-linejoin="round"/>
<path d="M7.9987 13.3337C8.36689 13.3337 8.66536 13.0352 8.66536 12.667C8.66536 12.2988 8.36689 12.0003 7.9987 12.0003C7.63051 12.0003 7.33203 12.2988 7.33203 12.667C7.33203 13.0352 7.63051 13.3337 7.9987 13.3337Z" stroke="#6E7689" stroke-linecap="round" stroke-linejoin="round"/>
</svg>
